<?xml version="1.0" encoding="UTF-8" standalone="no"?>
<!DOCTYPE svg PUBLIC "-//W3C//DTD SVG 1.1//EN" "http://www.w3.org/Graphics/SVG/1.1/DTD/svg11.dtd">
<svg width="100%" height="100%" viewBox="0 0 1837 500" version="1.1" xmlns="http://www.w3.org/2000/svg" xmlns:xlink="http://www.w3.org/1999/xlink" xml:space="preserve" xmlns:serif="http://www.serif.com/" style="fill-rule:evenodd;clip-rule:evenodd;stroke-linejoin:round;stroke-miterlimit:2;">
    <g transform="matrix(1,0,0,1,0,-679.652)">
        <g id="ArtBoard1" transform="matrix(3.67381,0,0,1,0,679.652)">
            <rect x="0" y="-0" width="500" height="500" style="fill:none;"/>
            <clipPath id="_clip1">
                <rect x="0" y="-0" width="500" height="500"/>
            </clipPath>
            <g clip-path="url(#_clip1)">
                <g transform="matrix(0.296053,0,0,1.08764,-448.924,-57.015)">
                    <text x="1799.9px" y="392.205px" style="font-family:'Inter-Black', 'Inter', sans-serif;font-weight:900;font-size:306.496px;fill:rgb(51,32,40);">EleMelon</text>
                </g>
                <g transform="matrix(1.14686,0,0,1.14686,-9.99371,-36.715)">
                    <g transform="matrix(0.272197,0,0,1,0,-679.652)">
                        <path d="M250,747.619L250,711.666C129.609,711.666 32.014,809.261 32.014,929.652C32.014,1050.04 129.609,1147.64 250,1147.64L250,1111.68C149.927,1111.15 68.964,1029.86 68.964,929.652C68.964,829.448 149.927,748.154 250,747.619Z" style="fill:url(#_Linear2);"/>
                    </g>
                    <g transform="matrix(0.182582,0,0,0.670772,22.4037,-373.585)">
                        <path d="M250,679.652C111.929,679.652 0,791.581 0,929.652C0,1067.72 111.929,1179.65 250,1179.65L250,679.652Z" style="fill:url(#_Linear3);"/>
                    </g>
                    <g transform="matrix(1.62407e-17,-0.974406,0.26523,5.96652e-17,-15.4927,1519.74)">
                        <circle cx="1385.19" cy="268.239" r="18.239" style="fill:rgb(51,32,40);"/>
                    </g>
                    <g transform="matrix(1.62407e-17,-0.974406,0.26523,5.96652e-17,-15.4927,1679.74)">
                        <circle cx="1385.19" cy="268.239" r="18.239" style="fill:rgb(51,32,40);"/>
                    </g>
                    <g transform="matrix(1.62407e-17,-0.974406,0.26523,5.96652e-17,-30.7561,1599.74)">
                        <circle cx="1385.19" cy="268.239" r="18.239" style="fill:rgb(51,32,40);"/>
                    </g>
                </g>
            </g>
        </g>
    </g>
    <defs>
        <linearGradient id="_Linear2" x1="0" y1="0" x2="1" y2="0" gradientUnits="userSpaceOnUse" gradientTransform="matrix(2.66956e-14,435.973,-871.946,5.33913e-14,250,711.666)"><stop offset="0" style="stop-color:rgb(50,234,123);stop-opacity:1"/><stop offset="0.45" style="stop-color:rgb(10,210,90);stop-opacity:1"/><stop offset="1" style="stop-color:rgb(0,204,81);stop-opacity:1"/></linearGradient>
        <linearGradient id="_Linear3" x1="0" y1="0" x2="1" y2="0" gradientUnits="userSpaceOnUse" gradientTransform="matrix(3.06162e-14,500,-1000,6.12323e-14,250,679.652)"><stop offset="0" style="stop-color:rgb(255,130,166);stop-opacity:1"/><stop offset="0.53" style="stop-color:rgb(255,85,134);stop-opacity:1"/><stop offset="1" style="stop-color:rgb(255,68,122);stop-opacity:1"/></linearGradient>
    </defs>
</svg>
